<?xml version="1.0" encoding="utf-8"?>
<!-- Generator: Adobe Illustrator 18.1.1, SVG Export Plug-In . SVG Version: 6.00 Build 0)  -->
<svg version="1.1" id="Layer_1" xmlns="http://www.w3.org/2000/svg" xmlns:xlink="http://www.w3.org/1999/xlink" x="0px" y="0px"
	 viewBox="0 0 25 25" enable-background="new 0 0 25 25" xml:space="preserve">
<path fill="#FFFFFF" d="M11.6,16.4c0.3,0.3,0.6,0.4,1,0.4c0.4,0,0.7-0.1,1-0.4l9.9-9C24,7,24.1,6.4,23.9,5.8c-0.2-0.6-0.8-1-1.4-1
	H2.7c-0.6,0-1.2,0.4-1.4,1C1,6.4,1.2,7,1.7,7.4L11.6,16.4z"/>
<path fill="#FFFFFF" stroke="#FFFFFF" stroke-miterlimit="10" d="M12.6,18.8l-8.4-6.9L1.5,9.6C1.4,9.5,1.3,9.4,1.2,9.3v8.2
	c0,2.4,1.9,4.3,4.3,4.3h14.2c2.4,0,4.3-1.9,4.3-4.3V9.3c-0.1,0.1-0.2,0.2-0.3,0.3L21,11.9L12.6,18.8"/>
</svg>
