<?xml version="1.0" encoding="utf-8"?>
<!-- Generator: Adobe Illustrator 18.1.1, SVG Export Plug-In . SVG Version: 6.00 Build 0)  -->
<svg version="1.1" id="Layer_1" xmlns="http://www.w3.org/2000/svg" xmlns:xlink="http://www.w3.org/1999/xlink" x="0px" y="0px"
	 viewBox="0 0 748 207" enable-background="new 0 0 748 207" xml:space="preserve">
<path fill="#FFFFFF" d="M260.6,164.9c-2.5-2.7-4.4-6.2-5.7-10.7c-1.3-4.5-1.9-9.2-1.9-14.3h3.2c0,5.8,0.7,10.5,2,14.1
	c1.4,3.6,3.1,6.4,5.2,8.4c2.1,2,4.3,3.3,6.7,4c2.4,0.7,4.7,1,6.8,1c2.6,0,5.2-0.5,7.8-1.4c2.6-0.9,4.9-2.4,7-4.3
	c2.1-2,3.7-4.6,5-7.9c1.3-3.3,1.9-7.2,1.9-12c0-5.4-0.7-10.2-2-14.2c-1.3-4-3.1-7.6-5.2-10.8c-2.2-3.1-4.6-5.9-7.3-8.4
	s-5.5-4.9-8.3-7.3c-2.7-2.3-5.3-4.6-7.8-6.8c-2.5-2.2-4.7-4.7-6.7-7.5c-4.4-6.4-6.7-13.5-6.7-21.4c0-0.4,0-1.3,0-2.8
	c0-1.5,0.2-3.3,0.5-5.3c0.3-2.1,0.9-4.3,1.7-6.7c0.8-2.4,2-4.6,3.7-6.7c3.9-5.1,9.5-7.6,16.5-7.6c7.2,0,12.6,2.5,16.2,7.6
	c1.5,2.2,2.6,4.6,3.3,7.2c0.7,2.6,1.1,5.1,1.3,7.4c0.2,2.4,0.3,4.3,0.2,6c-0.1,1.6-0.1,2.5-0.1,2.6h-3.2c0.1-2.9,0.1-5.4-0.1-7.6
	c-0.2-2.2-0.6-4.4-1.1-6.8c-0.6-2.4-1.5-4.4-2.8-6.2c-1.5-2.1-3.4-3.6-5.6-4.7c-2.2-1.1-4.9-1.6-8-1.6c-6.2,0-10.9,2.1-14.1,6.3
	c-1.4,1.8-2.5,3.8-3.2,6c-0.7,2.2-1.2,4.2-1.5,6.1c-0.3,1.9-0.5,4.1-0.5,6.8c0,4,0.6,7.5,1.7,10.6c1.1,3.1,2.6,5.9,4.4,8.5
	c1.8,2.6,3.9,5,6.3,7.2c2.4,2.2,4.8,4.3,7.4,6.5c2.9,2.4,5.8,5,8.7,7.6s5.4,5.7,7.8,9.1c5.3,7.7,7.9,16.8,7.9,27.2
	c0,9.8-2.7,17.4-8.2,22.8c-4.5,4.3-10,6.5-16.7,6.5c-2.3,0-5-0.4-8-1.2S263.3,167.6,260.6,164.9z"/>
<path fill="#FFFFFF" d="M371.6,38.3h4.1l-28,54c0.2,0.1,0.3,0.2,0.4,0.4c0,0.1,0.1,0.2,0.2,0.4l32.1,75.9h-3.6l-30.9-73l-16.1,31.3
	v42.2h-1.6h-1.6V38.1h1.6h1.6v82.2L371.6,38.3z"/>
<path fill="#FFFFFF" d="M442.2,38.1h3.5l-21.2,64.1v67.2h-1.6h-1.6v-67.2l-21.2-64.1h3.5l19.3,60.5L442.2,38.1z"/>
<path fill="#FFFFFF" d="M474.2,169.6v-1.8V37.9h1.6h1.6v128.2H518v1.6v1.8H474.2z"/>
<path fill="#FFFFFF" d="M551.9,169.6V37.9h1.6h1.6v131.7h-1.6H551.9z"/>
<path fill="#FFFFFF" d="M632,38.3h4.1l-28,54c0.2,0.1,0.3,0.2,0.4,0.4c0,0.1,0.1,0.2,0.2,0.4l32.1,75.9h-3.6l-30.9-73l-16.1,31.3
	v42.2h-1.6H587V38.1h1.6h1.6v82.2L632,38.3z"/>
<path fill="#FFFFFF" d="M707.4,166.2v1.6v1.8h-42.7v-1.8V39.9v-2h42.1v2v1.4h-39v68.5h30.5v1.8v1.6h-30.5v52.9H707.4z"/>
<g>
	<line fill="#FFFFFF" stroke="#FFFFFF" stroke-width="2" stroke-miterlimit="10" x1="200" y1="23" x2="200" y2="170"/>
	<line fill="#FFFFFF" stroke="#FFFFFF" stroke-width="2" stroke-miterlimit="10" x1="199.6" y1="22.7" x2="112.1" y2="37.1"/>
	<line fill="#FFFFFF" stroke="#FFFFFF" stroke-width="2" stroke-miterlimit="10" x1="114.4" y1="183.6" x2="184.7" y2="149.1"/>
	<line fill="#FFFFFF" stroke="#FFFFFF" stroke-width="2" stroke-miterlimit="10" x1="114" y1="38" x2="114" y2="163"/>
	<line fill="#FFFFFF" stroke="#FFFFFF" stroke-width="2" stroke-miterlimit="10" x1="27.3" y1="22.7" x2="112.1" y2="37.1"/>
	<line fill="#FFFFFF" stroke="#FFFFFF" stroke-width="2" stroke-miterlimit="10" x1="27.5" y1="169.2" x2="112.9" y2="183.6"/>
	<line fill="#FFFFFF" stroke="#FFFFFF" stroke-width="2" stroke-miterlimit="10" x1="185" y1="149" x2="185" y2="42"/>
	<line fill="#FFFFFF" stroke="#FFFFFF" stroke-width="2" stroke-miterlimit="10" x1="28" y1="23" x2="28" y2="170"/>
	<circle fill="#FFFFFF" stroke="#FFFFFF" stroke-miterlimit="10" cx="113.8" cy="37.3" r="3.4"/>
	<circle fill="#FFFFFF" stroke="#FFFFFF" stroke-miterlimit="10" cx="28.5" cy="22.7" r="3"/>
	<circle fill="#FFFFFF" stroke="#FFFFFF" stroke-miterlimit="10" cx="28.5" cy="168.2" r="3.9"/>
	<circle fill="#FFFFFF" stroke="#FFFFFF" stroke-miterlimit="10" cx="114.1" cy="183.9" r="3.7"/>
	<circle fill="#FFFFFF" stroke="#FFFFFF" stroke-miterlimit="10" cx="114.3" cy="163.5" r="2.4"/>
	<circle fill="#FFFFFF" stroke="#FFFFFF" stroke-miterlimit="10" cx="184.6" cy="40.6" r="2.3"/>
	<circle fill="#FFFFFF" stroke="#FFFFFF" stroke-miterlimit="10" cx="199.6" cy="169.2" r="2.4"/>
	<circle fill="#FFFFFF" stroke="#FFFFFF" stroke-miterlimit="10" cx="184.8" cy="148.3" r="2.6"/>
	<circle fill="#FFFFFF" stroke="#FFFFFF" stroke-miterlimit="10" cx="199.7" cy="22.7" r="2.6"/>
	<line fill="#FFFFFF" stroke="#FFFFFF" stroke-width="2" stroke-miterlimit="10" x1="199.9" y1="169.2" x2="114.5" y2="183.6"/>
</g>
</svg>
