<?xml version="1.0" encoding="utf-8"?>
<!-- Generator: Adobe Illustrator 18.1.1, SVG Export Plug-In . SVG Version: 6.00 Build 0)  -->
<svg version="1.1" id="Layer_1" xmlns="http://www.w3.org/2000/svg" xmlns:xlink="http://www.w3.org/1999/xlink" x="0px" y="0px"
	 viewBox="0 0 200 200" enable-background="new 0 0 200 200" xml:space="preserve">
<radialGradient id="SVGID_1_" cx="100.4333" cy="106.8689" r="47.859" gradientTransform="matrix(1 0 0 1.0779 0 -11.6386)" gradientUnits="userSpaceOnUse">
	<stop  offset="0.3147" style="stop-color:#F2F2F2"/>
	<stop  offset="0.9313" style="stop-color:#FFFFFF;stop-opacity:0"/>
</radialGradient>
<ellipse fill="url(#SVGID_1_)" cx="100.4" cy="103.6" rx="50.3" ry="48.9"/>
<radialGradient id="SVGID_2_" cx="95.5255" cy="93.5579" r="52.244" gradientTransform="matrix(-0.7071 0.7071 -9.254155e-02 -9.254155e-02 176.8748 44.701)" gradientUnits="userSpaceOnUse">
	<stop  offset="0.4053" style="stop-color:#E6E6E6"/>
	<stop  offset="1" style="stop-color:#FFFFFF;stop-opacity:0"/>
</radialGradient>
<path fill="url(#SVGID_2_)" d="M105.4,108.3c-20.4,20.4-39.1,34.8-41.7,32.2c-2.6-2.6,11.8-21.3,32.2-41.7S135,64,137.6,66.7
	C140.2,69.3,125.8,87.9,105.4,108.3z"/>
<radialGradient id="SVGID_3_" cx="119.5671" cy="117.5996" r="52.244" gradientTransform="matrix(0.7071 0.7071 9.254155e-02 -9.254155e-02 5.2404 29.9258)" gradientUnits="userSpaceOnUse">
	<stop  offset="0.4053" style="stop-color:#E6E6E6"/>
	<stop  offset="1" style="stop-color:#FFFFFF;stop-opacity:0"/>
</radialGradient>
<path fill="url(#SVGID_3_)" d="M96,108.3c20.4,20.4,39.1,34.8,41.7,32.2c2.6-2.6-11.8-21.3-32.2-41.7S66.3,64,63.7,66.7
	C61.1,69.3,75.5,87.9,96,108.3z"/>
<radialGradient id="SVGID_4_" cx="100.5819" cy="101.1461" r="77.6992" gradientTransform="matrix(1 0 0 0.1309 0 87.9087)" gradientUnits="userSpaceOnUse">
	<stop  offset="0.4053" style="stop-color:#FFFFFF"/>
	<stop  offset="0.9404" style="stop-color:#FFFFFF;stop-opacity:0"/>
</radialGradient>
<ellipse fill="url(#SVGID_4_)" cx="100.6" cy="101.1" rx="77.7" ry="9.9"/>
<radialGradient id="SVGID_5_" cx="89.966" cy="93.6461" r="90.6876" gradientTransform="matrix(4.489659e-11 0.9139 -0.1309 5.369805e-12 112.8377 17.0707)" gradientUnits="userSpaceOnUse">
	<stop  offset="0.4053" style="stop-color:#FFFFFF"/>
	<stop  offset="0.9035" style="stop-color:#FFFFFF;stop-opacity:0"/>
</radialGradient>
<ellipse fill="url(#SVGID_5_)" cx="100.6" cy="99.3" rx="11.6" ry="82.9"/>
</svg>
