<?xml version="1.0" encoding="utf-8"?>
<!-- Generator: Adobe Illustrator 18.1.1, SVG Export Plug-In . SVG Version: 6.00 Build 0)  -->
<svg version="1.1" id="Layer_1" xmlns="http://www.w3.org/2000/svg" xmlns:xlink="http://www.w3.org/1999/xlink" x="0px" y="0px"
	 viewBox="0 35.8 97.8 28.2" enable-background="new 0 35.8 97.8 28.2" xml:space="preserve">
<path fill="#FFFFFF" d="M34.8,58.2c-0.3-0.4-0.6-0.8-0.8-1.4s-0.3-1.2-0.3-1.9h0.4c0,0.8,0.1,1.4,0.3,1.9c0.2,0.5,0.4,0.9,0.7,1.1
	s0.6,0.4,0.9,0.5c0.3,0.1,0.6,0.1,0.9,0.1c0.3,0,0.7-0.1,1-0.2c0.3-0.1,0.7-0.3,0.9-0.6c0.3-0.3,0.5-0.6,0.7-1.1
	c0.2-0.4,0.3-1,0.3-1.6c0-0.7-0.1-1.4-0.3-1.9c-0.2-0.5-0.4-1-0.7-1.4c-0.3-0.4-0.6-0.8-1-1.1c-0.4-0.3-0.7-0.7-1.1-1
	c-0.4-0.3-0.7-0.6-1-0.9c-0.3-0.3-0.6-0.6-0.9-1C34.3,46.9,34,46,34,44.9c0-0.1,0-0.2,0-0.4s0-0.4,0.1-0.7c0-0.3,0.1-0.6,0.2-0.9
	c0.1-0.3,0.3-0.6,0.5-0.9c0.5-0.7,1.3-1,2.2-1c1,0,1.7,0.3,2.2,1c0.2,0.3,0.3,0.6,0.4,1c0.1,0.3,0.1,0.7,0.2,1c0,0.3,0,0.6,0,0.8
	c0,0.2,0,0.3,0,0.3h-0.4c0-0.4,0-0.7,0-1c0-0.3-0.1-0.6-0.1-0.9c-0.1-0.3-0.2-0.6-0.4-0.8c-0.2-0.3-0.5-0.5-0.7-0.6
	c-0.3-0.1-0.7-0.2-1.1-0.2c-0.8,0-1.5,0.3-1.9,0.8c-0.2,0.2-0.3,0.5-0.4,0.8c-0.1,0.3-0.2,0.6-0.2,0.8c0,0.3-0.1,0.5-0.1,0.9
	c0,0.5,0.1,1,0.2,1.4c0.1,0.4,0.3,0.8,0.6,1.1s0.5,0.7,0.8,1c0.3,0.3,0.6,0.6,1,0.9c0.4,0.3,0.8,0.7,1.2,1c0.4,0.3,0.7,0.8,1,1.2
	c0.7,1,1.1,2.2,1.1,3.6c0,1.3-0.4,2.3-1.1,3c-0.6,0.6-1.3,0.9-2.2,0.9c-0.3,0-0.7-0.1-1.1-0.2C35.6,58.8,35.2,58.6,34.8,58.2z"/>
<path fill="#FFFFFF" d="M49.7,41.3h0.5l-3.7,7.2c0,0,0,0,0.1,0.1c0,0,0,0,0,0.1l4.3,10.1h-0.5L46.2,49l-2.2,4.2v5.6h-0.2h-0.2V41.3
	h0.2h0.2v11L49.7,41.3z"/>
<path fill="#FFFFFF" d="M59.1,41.3h0.5l-2.8,8.6v9h-0.2h-0.2v-9l-2.8-8.6H54l2.6,8.1L59.1,41.3z"/>
<path fill="#FFFFFF" d="M63.4,58.8v-0.2V41.2h0.2h0.2v17.1h5.4v0.2v0.2L63.4,58.8L63.4,58.8z"/>
<path fill="#FFFFFF" d="M73.8,58.8V41.2H74h0.2v17.6H74H73.8z"/>
<path fill="#FFFFFF" d="M84.5,41.3H85l-3.7,7.2c0,0,0,0,0.1,0.1c0,0,0,0,0,0.1l4.3,10.1h-0.5L81.1,49l-2.2,4.2v5.6h-0.2h-0.2V41.3
	h0.2h0.2v11L84.5,41.3z"/>
<path fill="#FFFFFF" d="M94.6,58.4v0.2v0.2h-5.7v-0.2V41.5v-0.3h5.6v0.3v0.2h-5.2v9.2h4.1v0.2v0.2h-4.1v7.1L94.6,58.4L94.6,58.4z"/>
<g>
	<line fill="#FFFFFF" stroke="#FFFFFF" stroke-width="0.25" stroke-miterlimit="10" x1="26.7" y1="39.2" x2="26.7" y2="58.9"/>
	<line fill="#FFFFFF" stroke="#FFFFFF" stroke-width="0.25" stroke-miterlimit="10" x1="26.7" y1="39.2" x2="15" y2="41.1"/>
	<line fill="#FFFFFF" stroke="#FFFFFF" stroke-width="0.25" stroke-miterlimit="10" x1="15.3" y1="60.7" x2="24.7" y2="56.1"/>
	<line fill="#FFFFFF" stroke="#FFFFFF" stroke-width="0.25" stroke-miterlimit="10" x1="15.2" y1="41.2" x2="15.2" y2="58"/>
	<line fill="#FFFFFF" stroke="#FFFFFF" stroke-width="0.25" stroke-miterlimit="10" x1="3.6" y1="39.2" x2="15" y2="41.1"/>
	<line fill="#FFFFFF" stroke="#FFFFFF" stroke-width="0.25" stroke-miterlimit="10" x1="3.7" y1="58.8" x2="15.1" y2="60.7"/>
	<line fill="#FFFFFF" stroke="#FFFFFF" stroke-width="0.25" stroke-miterlimit="10" x1="24.7" y1="56.1" x2="24.7" y2="41.8"/>
	<line fill="#FFFFFF" stroke="#FFFFFF" stroke-width="0.25" stroke-miterlimit="10" x1="3.7" y1="39.2" x2="3.7" y2="58.9"/>
	<circle fill="#FFFFFF" stroke="#FFFFFF" stroke-width="0.25" stroke-miterlimit="10" cx="15.2" cy="41.1" r="0.5"/>
	<circle fill="#FFFFFF" stroke="#FFFFFF" stroke-width="0.25" stroke-miterlimit="10" cx="3.8" cy="39.2" r="0.4"/>
	<circle fill="#FFFFFF" stroke="#FFFFFF" stroke-width="0.25" stroke-miterlimit="10" cx="3.8" cy="58.6" r="0.5"/>
	<circle fill="#FFFFFF" stroke="#FFFFFF" stroke-width="0.25" stroke-miterlimit="10" cx="15.3" cy="60.7" r="0.5"/>
	<circle fill="#FFFFFF" stroke="#FFFFFF" stroke-width="0.25" stroke-miterlimit="10" cx="15.3" cy="58" r="0.3"/>
	<circle fill="#FFFFFF" stroke="#FFFFFF" stroke-width="0.25" stroke-miterlimit="10" cx="24.7" cy="41.6" r="0.3"/>
	<circle fill="#FFFFFF" stroke="#FFFFFF" stroke-width="0.25" stroke-miterlimit="10" cx="26.7" cy="58.8" r="0.3"/>
	<circle fill="#FFFFFF" stroke="#FFFFFF" stroke-width="0.25" stroke-miterlimit="10" cx="24.7" cy="56" r="0.3"/>
	<circle fill="#FFFFFF" stroke="#FFFFFF" stroke-width="0.25" stroke-miterlimit="10" cx="26.7" cy="39.2" r="0.3"/>
	<line fill="#FFFFFF" stroke="#FFFFFF" stroke-width="0.25" stroke-miterlimit="10" x1="26.7" y1="58.8" x2="15.3" y2="60.7"/>
</g>
</svg>
