<?xml version="1.0" encoding="utf-8"?>
<!-- Generator: Adobe Illustrator 18.1.1, SVG Export Plug-In . SVG Version: 6.00 Build 0)  -->
<svg version="1.1" id="Layer_1" xmlns="http://www.w3.org/2000/svg" xmlns:xlink="http://www.w3.org/1999/xlink" x="0px" y="0px"
	 viewBox="0 0 1314 343" enable-background="new 0 0 1314 343" xml:space="preserve">
<g>
	<path fill="#FFFFFF" d="M400.7,281.8c-4.9-5.1-8.5-12-11-20.6c-2.4-8.6-3.7-17.8-3.7-27.6h6.1c0,11.2,1.3,20.3,3.9,27.3
		c2.6,7,5.9,12.4,9.9,16.2c4,3.8,8.3,6.4,13,7.7c4.7,1.3,9.1,1.9,13.2,1.9c5.1,0,10.1-0.9,15.1-2.6c5-1.7,9.4-4.5,13.4-8.4
		c4-3.8,7.2-8.9,9.6-15.2c2.4-6.3,3.7-14,3.7-23.1c0-10.5-1.3-19.6-3.8-27.4c-2.5-7.8-5.9-14.7-10.1-20.8
		c-4.2-6.1-8.9-11.5-14.2-16.2s-10.6-9.5-16.1-14.2c-5.3-4.4-10.3-8.8-15.1-13.1c-4.8-4.3-9.1-9.1-13-14.5
		C393.3,118.8,389,105.1,389,90c0-0.7,0-2.5,0-5.4c0-2.9,0.3-6.3,1-10.3c0.6-4,1.7-8.3,3.2-12.9c1.5-4.7,3.9-9,7.2-12.9
		c7.6-9.8,18.2-14.7,31.9-14.7c13.8,0,24.3,4.9,31.3,14.7c2.9,4.2,5,8.8,6.3,13.8s2.1,9.8,2.5,14.3c0.4,4.5,0.5,8.4,0.4,11.5
		c-0.1,3.1-0.1,4.8-0.1,5.1h-6.1c0.2-5.6,0.1-10.5-0.3-14.7c-0.4-4.2-1.1-8.6-2.2-13.1c-1.1-4.5-2.9-8.6-5.4-12.1
		c-2.9-4-6.5-7-10.8-9.1c-4.3-2.1-9.5-3.1-15.5-3.1c-11.9,0-21,4.1-27.2,12.2c-2.7,3.5-4.8,7.3-6.1,11.5c-1.4,4.2-2.3,8.1-2.9,11.7
		c-0.6,3.6-0.9,8-0.9,13.1c0,7.7,1.1,14.5,3.2,20.4s5,11.4,8.5,16.4c3.5,5,7.6,9.6,12.2,13.8c4.6,4.2,9.3,8.4,14.2,12.6
		c5.7,4.7,11.2,9.6,16.7,14.7c5.5,5.1,10.5,10.9,15,17.5c10.2,14.9,15.2,32.4,15.2,52.4c0,18.9-5.3,33.5-15.8,44
		c-8.6,8.4-19.3,12.6-32.2,12.6c-4.5,0-9.6-0.8-15.4-2.3C411.1,290.2,405.7,286.9,400.7,281.8z"/>
	<path fill="#FFFFFF" d="M614.7,37.5h7.9l-54.1,104.1c0.4,0.2,0.6,0.5,0.7,0.7c0.1,0.2,0.2,0.5,0.4,0.7l62,146.4h-7L565,148.7
		l-31,60.5v81.4h-3.1h-3.1V37.2h3.1h3.1v158.6L614.7,37.5z"/>
	<path fill="#FFFFFF" d="M750.9,37.2h6.7l-40.9,123.7v129.6h-3.1h-3.1V160.9L669.6,37.2h6.7l37.3,116.7L750.9,37.2z"/>
	<path fill="#FFFFFF" d="M812.6,290.9v-3.5V36.9h3.1h3.1v247.4h78.4v3.1v3.5H812.6z"/>
	<path fill="#FFFFFF" d="M962.6,290.9v-254h3.1h3.1v254h-3.1H962.6z"/>
	<path fill="#FFFFFF" d="M1117,37.5h7.9l-54.1,104.1c0.4,0.2,0.6,0.5,0.7,0.7c0.1,0.2,0.2,0.5,0.4,0.7l62,146.4h-7l-59.6-140.8
		l-31,60.5v81.4h-3.1h-3.1V37.2h3.1h3.1v158.6L1117,37.5z"/>
	<path fill="#FFFFFF" d="M1262.5,284.2v3.1v3.5h-82.4v-3.5V40.7v-3.8h81.3v3.8v2.8h-75.1v132.1h58.8v3.5v3.1h-58.8v102H1262.5z"/>
	<g>
		<line fill="#FFFFFF" stroke="#FFFFFF" stroke-width="2" stroke-miterlimit="10" x1="317" y1="31" x2="317" y2="285"/>
		<line fill="#FFFFFF" stroke="#FFFFFF" stroke-width="2" stroke-miterlimit="10" x1="316.3" y1="31.1" x2="165.5" y2="55.9"/>
		<line fill="#FFFFFF" stroke="#FFFFFF" stroke-width="2" stroke-miterlimit="10" x1="169.4" y1="308.6" x2="290.6" y2="249"/>
		<line fill="#FFFFFF" stroke="#FFFFFF" stroke-width="2" stroke-miterlimit="10" x1="169" y1="57" x2="169" y2="273"/>
		<line fill="#FFFFFF" stroke="#FFFFFF" stroke-width="2" stroke-miterlimit="10" x1="19.3" y1="31.1" x2="165.5" y2="55.9"/>
		<line fill="#FFFFFF" stroke="#FFFFFF" stroke-width="2" stroke-miterlimit="10" x1="19.6" y1="283.8" x2="166.9" y2="308.6"/>
		<line fill="#FFFFFF" stroke="#FFFFFF" stroke-width="2" stroke-miterlimit="10" x1="291" y1="248" x2="291" y2="64"/>
		<line fill="#FFFFFF" stroke="#FFFFFF" stroke-width="2" stroke-miterlimit="10" x1="20" y1="31" x2="20" y2="285"/>
		<circle fill="#FFFFFF" stroke="#FFFFFF" stroke-miterlimit="10" cx="168.5" cy="56.4" r="4.3"/>
		<circle fill="#FFFFFF" stroke="#FFFFFF" stroke-miterlimit="10" cx="21.3" cy="31.1" r="4.5"/>
		<circle fill="#FFFFFF" stroke="#FFFFFF" stroke-miterlimit="10" cx="21.3" cy="282" r="6.8"/>
		<circle fill="#FFFFFF" stroke="#FFFFFF" stroke-miterlimit="10" cx="168.9" cy="309.1" r="6.3"/>
		<circle fill="#FFFFFF" stroke="#FFFFFF" stroke-miterlimit="10" cx="169.2" cy="273.9" r="4.1"/>
		<circle fill="#FFFFFF" stroke="#FFFFFF" stroke-miterlimit="10" cx="290.7" cy="62.1" r="3.2"/>
		<circle fill="#FFFFFF" stroke="#FFFFFF" stroke-miterlimit="10" cx="316.3" cy="283.8" r="4.1"/>
		<circle fill="#FFFFFF" stroke="#FFFFFF" stroke-miterlimit="10" cx="290.7" cy="247.7" r="4.5"/>
		<circle fill="#FFFFFF" stroke="#FFFFFF" stroke-miterlimit="10" cx="316.5" cy="31.1" r="4.5"/>
		<line fill="#FFFFFF" stroke="#FFFFFF" stroke-width="2" stroke-miterlimit="10" x1="316.9" y1="283.8" x2="169.6" y2="308.6"/>
	</g>
</g>
</svg>
