<?xml version="1.0" encoding="UTF-8" standalone="no"?>
<!-- Generator: Adobe Illustrator 18.1.1, SVG Export Plug-In . SVG Version: 6.00 Build 0)  -->

<svg
   xmlns:dc="http://purl.org/dc/elements/1.1/"
   xmlns:cc="http://creativecommons.org/ns#"
   xmlns:rdf="http://www.w3.org/1999/02/22-rdf-syntax-ns#"
   xmlns:svg="http://www.w3.org/2000/svg"
   xmlns="http://www.w3.org/2000/svg"
   xmlns:sodipodi="http://sodipodi.sourceforge.net/DTD/sodipodi-0.dtd"
   xmlns:inkscape="http://www.inkscape.org/namespaces/inkscape"
   version="1.1"
   id="Layer_1"
   x="0px"
   y="0px"
   viewBox="0 35.8 115.26429 128.84857"
   enable-background="new 0 35.8 97.8 28.2"
   xml:space="preserve"
   inkscape:version="0.91 r13725"
   sodipodi:docname="previewLogo.svg"
   width="115.26429"
   height="128.84857"><metadata
     id="metadata59"><rdf:RDF><cc:Work
         rdf:about=""><dc:format>image/svg+xml</dc:format><dc:type
           rdf:resource="http://purl.org/dc/dcmitype/StillImage" /><dc:title /></cc:Work></rdf:RDF></metadata><defs
     id="defs57" /><sodipodi:namedview
     pagecolor="#ffffff"
     bordercolor="#666666"
     borderopacity="1"
     objecttolerance="10"
     gridtolerance="10"
     guidetolerance="10"
     inkscape:pageopacity="0"
     inkscape:pageshadow="2"
     inkscape:window-width="1827"
     inkscape:window-height="1046"
     id="namedview55"
     showgrid="false"
     fit-margin-top="0"
     fit-margin-left="0"
     fit-margin-right="0"
     fit-margin-bottom="0"
     inkscape:zoom="1.4171056"
     inkscape:cx="67.184157"
     inkscape:cy="-6.8579085"
     inkscape:window-x="-11"
     inkscape:window-y="-11"
     inkscape:window-maximized="1"
     inkscape:current-layer="Layer_1" /><rect
     style="fill:#04284c;fill-opacity:1;fill-rule:evenodd;stroke:none;stroke-width:1px;stroke-linecap:butt;stroke-linejoin:miter;stroke-opacity:1"
     id="rect3398"
     width="498.64294"
     height="260.02133"
     x="-202.64291"
     y="-82.751511"
     inkscape:export-xdpi="390.40714"
     inkscape:export-ydpi="390.40714" /><g
     id="g3426"
     transform="translate(2.1169966,0)"><g
       inkscape:export-ydpi="390.40714"
       inkscape:export-xdpi="390.40714"
       transform="matrix(1.7961385,0,0,1.7961385,-43.003466,-125.95976)"
       id="g4211"><path
         d="M 5.336444,152.05719 C 4.8926752,151.57095 4.4489063,151.0847 4.1530604,150.35533 3.8572145,149.62596 3.7092916,148.89658 3.7092916,148.04565 l 0.5916918,0 c 0,0.9725 0.1479229,1.70187 0.4437688,2.30968 0.2958459,0.60781 0.5916918,1.09406 1.0354607,1.33718 0.4437688,0.24312 0.8875376,0.48625 1.3313065,0.60781 0.4437688,0.12156 0.8875377,0.12156 1.3313065,0.12156 0.443769,0 1.0354606,-0.12156 1.4792296,-0.24312 0.4437685,-0.12157 1.0354605,-0.36469 1.3313065,-0.72937 0.443769,-0.36469 0.739615,-0.72938 1.035461,-1.33719 0.295846,-0.48624 0.443768,-1.21562 0.443768,-1.94499 0,-0.85093 -0.147922,-1.70186 -0.443768,-2.30967 -0.295846,-0.60781 -0.591692,-1.21562 -1.035461,-1.70187 -0.443769,-0.48625 -0.887538,-0.9725 -1.4792296,-1.33718 C 9.1824406,142.4538 8.7386718,141.96755 8.14698,141.60287 7.5552882,141.23818 7.1115194,140.8735 6.6677505,140.50881 6.2239817,140.14412 5.7802129,139.77944 5.336444,139.29319 c -0.7396147,-0.9725 -1.1833836,-2.06655 -1.1833836,-3.40373 0,-0.12157 0,-0.24313 0,-0.48625 0,-0.24313 0,-0.48625 0.147923,-0.85094 0,-0.36468 0.1479229,-0.72937 0.2958459,-1.09405 0.1479229,-0.36469 0.4437688,-0.72937 0.7396147,-1.09406 0.7396148,-0.85093 1.9229983,-1.21562 3.2543049,-1.21562 1.4792291,0 2.5146901,0.36469 3.2543051,1.21562 0.295846,0.36469 0.443769,0.72937 0.591692,1.21562 0.147923,0.36468 0.147923,0.85093 0.295845,1.21562 0,0.36468 0,0.72937 0,0.97249 0,0.24313 0,0.36469 0,0.36469 l -0.591691,0 c 0,-0.48625 0,-0.85093 0,-1.21562 0,-0.36469 -0.147923,-0.72937 -0.147923,-1.09406 -0.147923,-0.36468 -0.295846,-0.72937 -0.591692,-0.97249 -0.295846,-0.36469 -0.739615,-0.60781 -1.035461,-0.72937 -0.4437685,-0.12157 -1.0354604,-0.24313 -1.6271522,-0.24313 -1.1833836,0 -2.2188442,0.36469 -2.810536,0.9725 -0.2958459,0.24312 -0.4437688,0.60781 -0.5916918,0.97249 -0.1479229,0.36469 -0.2958459,0.72937 -0.2958459,0.9725 0,0.36468 -0.1479229,0.60781 -0.1479229,1.09406 0,0.60781 0.1479229,1.21562 0.2958459,1.70186 0.1479229,0.48625 0.4437688,0.9725 0.8875377,1.33718 0.4437688,0.36469 0.7396147,0.85094 1.1833835,1.21562 0.4437689,0.36469 0.8875377,0.72938 1.4792295,1.09406 0.5916918,0.36469 1.1833837,0.85094 1.7750752,1.21562 0.591692,0.36469 1.035461,0.9725 1.47923,1.45874 1.03546,1.21562 1.627153,2.67437 1.627153,4.37623 0,1.58031 -0.591693,2.79593 -1.627153,3.64686 -0.887538,0.72937 -1.922999,1.09406 -3.2543052,1.09406 -0.4437688,0 -1.0354606,-0.12156 -1.6271524,-0.24312 -0.5916918,0 -1.1833836,-0.24313 -1.7750754,-0.72938 z"
         id="path3"
         inkscape:connector-curvature="0"
         style="fill:#ffffff;stroke:#f4ffff;stroke-width:1;stroke-miterlimit:4;stroke-dasharray:none;stroke-opacity:1" /><path
         d="m 27.376964,131.51323 0.739614,0 -5.473149,8.75246 c 0,0 0,0 0.147923,0.12156 0,0 0,0 0,0.12156 l 6.360687,12.27776 -0.739615,0 -6.212764,-11.91307 -3.254304,5.1056 0,6.80747 -0.295846,0 -0.295846,0 0,-21.27334 0.295846,0 0.295846,0 0,13.37181 8.431608,-13.37181 z"
         id="path5"
         inkscape:connector-curvature="0"
         style="fill:#ffffff;stroke:#f4ffff;stroke-width:1;stroke-miterlimit:4;stroke-dasharray:none;stroke-opacity:1" /><path
         d="m 41.281721,131.51323 0.739614,0 -4.141842,10.45432 0,10.94058 -0.295846,0 -0.295846,0 0,-10.94058 -4.141842,-10.45432 0.591691,0 3.845997,9.84651 3.698074,-9.84651 z"
         id="path7"
         inkscape:connector-curvature="0"
         style="fill:#ffffff;stroke:#f4ffff;stroke-width:1;stroke-miterlimit:4;stroke-dasharray:none;stroke-opacity:1" /><path
         d="m 47.642407,152.78657 0,-0.24313 0,-21.15178 0.295846,0 0.295846,0 0,20.7871 7.987839,0 0,0.24312 0,0.24312 -8.579531,0.12157 0,0 z"
         id="path9"
         inkscape:connector-curvature="0"
         style="fill:#ffffff;stroke:#f4ffff;stroke-width:1;stroke-miterlimit:4;stroke-dasharray:none;stroke-opacity:1" /><path
         d="m 63.026395,152.78657 0,-21.39491 0.295846,0 0.295846,0 0,21.39491 -0.295846,0 -0.295846,0 z"
         id="path11"
         inkscape:connector-curvature="0"
         style="fill:#ffffff;stroke:#f4ffff;stroke-width:1;stroke-miterlimit:4;stroke-dasharray:none;stroke-opacity:1" /><path
         d="m 78.85415,131.51323 0.739615,0 -5.473149,8.75246 c 0,0 0,0 0.147923,0.12156 0,0 0,0 0,0.12156 l 6.360687,12.27776 -0.739615,0 -6.064841,-11.91307 -3.254305,5.1056 0,6.80747 -0.295846,0 -0.295846,0 0,-21.27334 0.295846,0 0.295846,0 0,13.37181 8.283685,-13.37181 z"
         id="path13"
         inkscape:connector-curvature="0"
         style="fill:#ffffff;stroke:#f4ffff;stroke-width:1;stroke-miterlimit:4;stroke-dasharray:none;stroke-opacity:1" /><path
         d="m 93.794368,152.30032 0,0.24312 0,0.24313 -8.431608,0 0,-0.24313 0,-20.78709 0,-0.36469 8.283685,0 0,0.36469 0,0.24312 -7.691993,0 0,11.1837 6.064841,0 0,0.24313 0,0.24312 -6.064841,0 0,8.6309 7.839916,0 0,0 z"
         id="path15"
         inkscape:connector-curvature="0"
         style="fill:#ffffff;stroke:#f4ffff;stroke-width:1;stroke-miterlimit:4;stroke-dasharray:none;stroke-opacity:1" /></g><line
       inkscape:export-ydpi="390.40714"
       inkscape:export-xdpi="390.40714"
       stroke-miterlimit="10"
       x1="124.44475"
       y1="-51.595573"
       x2="124.44475"
       y2="84.655403"
       id="line19"
       style="fill:#ffffff;fill-opacity:1;stroke:#ffffff;stroke-width:1.72907329;stroke-miterlimit:10;stroke-opacity:0.6875" /><line
       inkscape:export-ydpi="390.40714"
       inkscape:export-xdpi="390.40714"
       stroke-miterlimit="10"
       x1="124.44475"
       y1="-51.595573"
       x2="43.524117"
       y2="-38.454643"
       id="line21"
       style="fill:#ffffff;fill-opacity:1;stroke:#ffffff;stroke-width:1.72907329;stroke-miterlimit:10;stroke-opacity:0.6875" /><line
       inkscape:export-ydpi="390.40714"
       inkscape:export-xdpi="390.40714"
       stroke-miterlimit="10"
       x1="45.598995"
       y1="97.104721"
       x2="110.61217"
       y2="65.289749"
       id="line23"
       style="fill:#ffffff;fill-opacity:1;stroke:#ffffff;stroke-width:1.72907329;stroke-miterlimit:10;stroke-opacity:0.6875" /><line
       inkscape:export-ydpi="390.40714"
       inkscape:export-xdpi="390.40714"
       stroke-miterlimit="10"
       x1="44.907375"
       y1="-37.762993"
       x2="44.907375"
       y2="78.430717"
       id="line25"
       style="fill:#ffffff;fill-opacity:1;stroke:#ffffff;stroke-width:1.72907329;stroke-miterlimit:10;stroke-opacity:0.6875" /><line
       inkscape:export-ydpi="390.40714"
       inkscape:export-xdpi="390.40714"
       stroke-miterlimit="10"
       x1="-35.321629"
       y1="-51.595573"
       x2="43.524117"
       y2="-38.454643"
       id="line27"
       style="fill:#ffffff;fill-opacity:1;stroke:#ffffff;stroke-width:1.72907329;stroke-miterlimit:10;stroke-opacity:0.6875" /><line
       inkscape:export-ydpi="390.40714"
       inkscape:export-xdpi="390.40714"
       stroke-miterlimit="10"
       x1="-34.629997"
       y1="83.96373"
       x2="44.215744"
       y2="97.104721"
       id="line29"
       style="fill:#ffffff;fill-opacity:1;stroke:#ffffff;stroke-width:1.72907329;stroke-miterlimit:10;stroke-opacity:0.6875" /><line
       inkscape:export-ydpi="390.40714"
       inkscape:export-xdpi="390.40714"
       stroke-miterlimit="10"
       x1="110.61217"
       y1="65.289749"
       x2="110.61217"
       y2="-33.613228"
       id="line31"
       style="fill:#ffffff;fill-opacity:1;stroke:#ffffff;stroke-width:1.72907329;stroke-miterlimit:10;stroke-opacity:0.6875" /><line
       inkscape:export-ydpi="390.40714"
       inkscape:export-xdpi="390.40714"
       stroke-miterlimit="10"
       x1="-34.629997"
       y1="-51.595573"
       x2="-34.629997"
       y2="84.655403"
       id="line33"
       style="fill:#ffffff;fill-opacity:1;stroke:#ffffff;stroke-width:1.72907329;stroke-miterlimit:10;stroke-opacity:0.6875" /><circle
       inkscape:export-ydpi="390.40714"
       inkscape:export-xdpi="390.40714"
       stroke-miterlimit="10"
       cx="44.907375"
       cy="-38.454643"
       r="3.4581466"
       id="circle35"
       style="fill:#ffffff;stroke:#ffffff;stroke-width:1.72907329;stroke-miterlimit:10" /><circle
       inkscape:export-ydpi="390.40714"
       inkscape:export-xdpi="390.40714"
       stroke-miterlimit="10"
       cx="-33.938366"
       cy="-51.595573"
       r="2.7665169"
       id="circle37"
       style="fill:#ffffff;stroke:#ffffff;stroke-width:1.72907329;stroke-miterlimit:10" /><circle
       inkscape:export-ydpi="390.40714"
       inkscape:export-xdpi="390.40714"
       stroke-miterlimit="10"
       cx="-33.938366"
       cy="82.580482"
       r="3.4581466"
       id="circle39"
       style="fill:#ffffff;stroke:#ffffff;stroke-width:1.72907329;stroke-miterlimit:10" /><circle
       inkscape:export-ydpi="390.40714"
       inkscape:export-xdpi="390.40714"
       stroke-miterlimit="10"
       cx="45.598995"
       cy="97.104721"
       r="3.4581466"
       id="circle41"
       style="fill:#ffffff;stroke:#ffffff;stroke-width:1.72907329;stroke-miterlimit:10" /><circle
       inkscape:export-ydpi="390.40714"
       inkscape:export-xdpi="390.40714"
       stroke-miterlimit="10"
       cx="45.598995"
       cy="78.430717"
       r="2.074888"
       id="circle43"
       style="fill:#ffffff;stroke:#ffffff;stroke-width:1.72907329;stroke-miterlimit:10" /><circle
       inkscape:export-ydpi="390.40714"
       inkscape:export-xdpi="390.40714"
       stroke-miterlimit="10"
       cx="110.61217"
       cy="-34.99649"
       r="2.074888"
       id="circle45"
       style="fill:#ffffff;stroke:#ffffff;stroke-width:1.72907329;stroke-miterlimit:10" /><circle
       inkscape:export-ydpi="390.40714"
       inkscape:export-xdpi="390.40714"
       stroke-miterlimit="10"
       cx="124.44475"
       cy="83.96373"
       r="2.074888"
       id="circle47"
       style="fill:#ffffff;stroke:#ffffff;stroke-width:1.72907329;stroke-miterlimit:10" /><circle
       inkscape:export-ydpi="390.40714"
       inkscape:export-xdpi="390.40714"
       stroke-miterlimit="10"
       cx="110.61217"
       cy="64.598145"
       r="2.074888"
       id="circle49"
       style="fill:#ffffff;stroke:#ffffff;stroke-width:1.72907329;stroke-miterlimit:10" /><circle
       inkscape:export-ydpi="390.40714"
       inkscape:export-xdpi="390.40714"
       stroke-miterlimit="10"
       cx="124.44475"
       cy="-51.595573"
       r="2.074888"
       id="circle51"
       style="fill:#ffffff;stroke:#ffffff;stroke-width:1.72907329;stroke-miterlimit:10" /><line
       inkscape:export-ydpi="390.40714"
       inkscape:export-xdpi="390.40714"
       stroke-miterlimit="10"
       x1="124.44475"
       y1="83.96373"
       x2="45.598995"
       y2="97.104721"
       id="line53"
       style="fill:#ffffff;fill-opacity:1;stroke:#ffffff;stroke-width:1.72907329;stroke-miterlimit:10;stroke-opacity:0.6875" /></g></svg>