<?xml version="1.0" encoding="utf-8"?>
<!-- Generator: Adobe Illustrator 18.1.1, SVG Export Plug-In . SVG Version: 6.00 Build 0)  -->
<svg version="1.1" id="Layer_1" xmlns="http://www.w3.org/2000/svg" xmlns:xlink="http://www.w3.org/1999/xlink" x="0px" y="0px"
	 viewBox="241.5 1.5 200 200" enable-background="new 241.5 1.5 200 200" xml:space="preserve">
<g>
	<path fill="#FFFFFF" stroke="#FFFFFF" d="M275.2,192.3c-0.8-0.7-1.3-1.5-1.7-2.6c-0.4-1.1-0.5-2.2-0.5-3.5h0.9
		c0,1.4,0.2,2.6,0.6,3.4c0.4,0.9,0.9,1.6,1.5,2c0.6,0.5,1.2,0.8,2,1c0.7,0.1,1.3,0.3,2,0.3c0.8,0,1.5-0.1,2.2-0.3
		c0.8-0.2,1.4-0.6,2-1.1c0.6-0.5,1.1-1.1,1.4-2c0.4-0.8,0.5-1.8,0.5-2.9c0-1.3-0.2-2.5-0.6-3.4c-0.3-1-0.9-1.9-1.5-2.6
		c-0.7-0.8-1.3-1.4-2.1-2c-0.8-0.6-1.6-1.2-2.4-1.8c-0.8-0.5-1.6-1.1-2.2-1.7c-0.7-0.5-1.4-1.1-2-1.8c-1.3-1.6-2-3.3-2-5.2
		c0-0.1,0-0.3,0-0.7s0-0.8,0.1-1.3c0.1-0.5,0.3-1,0.5-1.6c0.2-0.6,0.6-1.1,1.1-1.6c1.1-1.2,2.7-1.8,4.8-1.8c2.1,0,3.7,0.6,4.7,1.8
		c0.4,0.5,0.8,1.1,1,1.7c0.2,0.7,0.3,1.2,0.4,1.8c0,0.6,0.1,1.1,0,1.4c0,0.4,0,0.6,0,0.7H285c0-0.7,0-1.3,0-1.8
		c0-0.5-0.1-1.1-0.3-1.7c-0.1-0.6-0.4-1.1-0.8-1.5c-0.4-0.5-1-0.9-1.6-1.1s-1.4-0.4-2.3-0.4c-1.8,0-3.1,0.5-4.1,1.6
		c-0.4,0.4-0.7,0.9-0.9,1.4c-0.2,0.5-0.4,1-0.4,1.4c-0.1,0.4-0.1,1-0.1,1.7c0,1,0.1,1.8,0.5,2.6c0.3,0.8,0.8,1.4,1.3,2.1
		c0.5,0.7,1.1,1.2,1.8,1.7c0.7,0.5,1.4,1.1,2.1,1.6c0.9,0.6,1.7,1.2,2.5,1.8c0.8,0.7,1.6,1.4,2.2,2.2c1.6,1.9,2.3,4.1,2.3,6.6
		c0,2.4-0.8,4.2-2.4,5.5c-1.3,1.1-2.9,1.6-4.8,1.6c-0.7,0-1.4-0.1-2.3-0.3C276.7,193.4,275.9,193,275.2,192.3z"/>
	<path fill="#FFFFFF" stroke="#FFFFFF" d="M309.5,161.5h1.2l-8.1,13.1c0,0,0.1,0,0.1,0.1s0,0,0,0.1l9.3,18.5H311l-9-17.7l-4.7,7.6
		v10.1h-0.5h-0.5v-31.9h0.5h0.5v20L309.5,161.5z"/>
	<path fill="#FFFFFF" stroke="#FFFFFF" d="M332.3,161.5h1l-6.2,15.6v16.3h-0.4h-0.5v-16.3l-6.2-15.6h1l5.6,14.7L332.3,161.5z"/>
	<path fill="#FFFFFF" stroke="#FFFFFF" d="M343.7,193.5V193v-31.6h0.5h0.5v31.2h11.8v0.4v0.4L343.7,193.5L343.7,193.5z"/>
	<path fill="#FFFFFF" stroke="#FFFFFF" d="M368.5,193.5v-32h0.5h0.5v32H369H368.5z"/>
	<path fill="#FFFFFF" stroke="#FFFFFF" d="M394,161.5h1.2l-8.1,13.1c0,0,0.1,0,0.1,0.1s0,0,0,0.1l9.3,18.5h-1.1l-9-17.7l-4.7,7.6
		v10.1h-0.5h-0.5v-31.9h0.5h0.5v20L394,161.5z"/>
	<path fill="#FFFFFF" stroke="#FFFFFF" d="M418.1,192.6v0.4v0.4h-12.4V193v-31v-0.5h12.2v0.5v0.4h-11.3V179h8.9v0.4v0.4h-8.9v12.8
		L418.1,192.6L418.1,192.6z"/>
</g>
<g>
	
		<line fill="none" stroke="#FFFFFF" stroke-width="2" stroke-miterlimit="10" enable-background="new    " x1="414.4" y1="17.1" x2="414.4" y2="138"/>
	
		<line fill="none" stroke="#FFFFFF" stroke-width="2" stroke-miterlimit="10" enable-background="new    " x1="416" y1="17.3" x2="344.2" y2="29.1"/>
	
		<line fill="none" stroke="#FFFFFF" stroke-width="2" stroke-miterlimit="10" enable-background="new    " x1="416" y1="137.6" x2="344.2" y2="149.4"/>
	
		<line fill="none" stroke="#FFFFFF" stroke-width="2" stroke-miterlimit="10" enable-background="new    " x1="344.6" y1="149.4" x2="402.3" y2="121.1"/>
	
		<line fill="none" stroke="#FFFFFF" stroke-width="2" stroke-miterlimit="10" enable-background="new    " x1="343.9" y1="29.5" x2="343.9" y2="132.3"/>
	
		<line fill="none" stroke="#FFFFFF" stroke-width="2" stroke-miterlimit="10" enable-background="new    " x1="274.6" y1="17.3" x2="344.2" y2="29.1"/>
	
		<line fill="none" stroke="#FFFFFF" stroke-width="2" stroke-miterlimit="10" enable-background="new    " x1="274.7" y1="137.6" x2="344.2" y2="149.4"/>
	
		<line fill="none" stroke="#FFFFFF" stroke-width="2" stroke-miterlimit="10" enable-background="new    " x1="402" y1="120.4" x2="402" y2="32.8"/>
	
		<line fill="none" stroke="#FFFFFF" stroke-width="2" stroke-miterlimit="10" enable-background="new    " x1="273.4" y1="17.1" x2="273.4" y2="138"/>
	<circle fill="#FFFFFF" stroke="#FFFFFF" stroke-miterlimit="10" cx="343.7" cy="29.3" r="2.1"/>
	<circle fill="#FFFFFF" stroke="#FFFFFF" stroke-miterlimit="10" cx="273.9" cy="17.3" r="2.1"/>
	<circle fill="#FFFFFF" stroke="#FFFFFF" stroke-miterlimit="10" cx="273.9" cy="136.7" r="3.2"/>
	<circle fill="#FFFFFF" stroke="#FFFFFF" stroke-miterlimit="10" cx="344.5" cy="149.6" r="1.7"/>
	<circle fill="#FFFFFF" stroke="#FFFFFF" stroke-miterlimit="10" cx="344.1" cy="132.9" r="2"/>
	<circle fill="#FFFFFF" stroke="#FFFFFF" stroke-miterlimit="10" cx="401.9" cy="32" r="1.5"/>
	<circle fill="#FFFFFF" stroke="#FFFFFF" stroke-miterlimit="10" cx="414.1" cy="137.6" r="2"/>
	<circle fill="#FFFFFF" stroke="#FFFFFF" stroke-miterlimit="10" cx="401.9" cy="120.4" r="2.1"/>
	<circle fill="#FFFFFF" stroke="#FFFFFF" stroke-miterlimit="10" cx="414.5" cy="17.3" r="2.1"/>
	<rect x="266.6" y="159.9" fill="none" width="154.2" height="28.6"/>
	
		<text transform="matrix(1 0 0 1 266.5625 186.2686)" fill="#FFFFFF" stroke="#FFFFFF" font-family="'basictitlefont'" font-size="36" letter-spacing="2">Skylikes</text>
</g>
</svg>
