<?xml version="1.0" encoding="utf-8"?>
<!-- Generator: Adobe Illustrator 18.1.1, SVG Export Plug-In . SVG Version: 6.00 Build 0)  -->
<svg version="1.1" id="Layer_1" xmlns="http://www.w3.org/2000/svg" xmlns:xlink="http://www.w3.org/1999/xlink" x="0px" y="0px"
	 viewBox="-34.3 -26.7 134.3 126.7" enable-background="new -34.3 -26.7 134.3 126.7" xml:space="preserve">
<g>
	<path fill="#FFFFFF" stroke="#FFFFFF" stroke-width="0.5" d="M-16.5,98.3c-0.6-0.5-0.9-1.1-1.2-1.8c-0.3-0.8-0.4-1.6-0.4-2.4h0.6
		c0,1,0.2,1.8,0.4,2.4c0.3,0.6,0.6,1.1,1.1,1.4c0.4,0.3,0.9,0.6,1.4,0.6s0.9,0.2,1.4,0.2c0.6,0,1.1,0,1.6-0.2c0.6-0.2,1-0.4,1.4-0.8
		c0.4-0.3,0.8-0.8,1-1.4c0.3-0.6,0.4-1.2,0.4-2c0-0.9-0.2-1.8-0.4-2.4s-0.6-1.3-1.1-1.8c-0.5-0.6-0.9-1-1.5-1.4
		c-0.6-0.4-1.2-0.8-1.7-1.2c-0.6-0.4-1.1-0.8-1.6-1.2s-1-0.8-1.4-1.2c-0.9-1.1-1.4-2.3-1.4-3.7c0,0,0-0.2,0-0.5s0-0.6,0.1-0.9
		c0-0.3,0.2-0.7,0.3-1.2c0.2-0.4,0.4-0.8,0.8-1.2c0.8-0.9,1.9-1.2,3.3-1.2c1.5,0,2.6,0.4,3.3,1.2c0.3,0.4,0.6,0.8,0.6,1.2
		c0.2,0.5,0.2,0.9,0.3,1.2c0,0.4,0,0.8,0,1c0,0.3,0,0.4,0,0.5h-0.6c0-0.5,0-0.9,0-1.2c0-0.4-0.1-0.8-0.2-1.2
		c-0.1-0.4-0.3-0.8-0.6-1.1c-0.3-0.3-0.6-0.6-1.2-0.8c-0.5-0.2-1-0.3-1.6-0.3c-1.2,0-2.2,0.4-2.9,1.1c-0.3,0.3-0.5,0.6-0.6,1
		c-0.2,0.4-0.3,0.7-0.3,1c0,0.3,0,0.7,0,1.2c0,0.6,0.1,1.2,0.3,1.8s0.6,1,0.9,1.5c0.4,0.5,0.8,0.9,1.2,1.2c0.5,0.4,1,0.8,1.5,1.2
		c0.6,0.4,1.2,0.8,1.8,1.2c0.6,0.5,1.1,1,1.6,1.5c1.1,1.3,1.6,2.9,1.6,4.7c0,1.7-0.6,3-1.7,3.9c-0.9,0.8-2,1.2-3.4,1.2
		c-0.5,0-1,0-1.6-0.2C-15.5,99.1-16,98.8-16.5,98.3z"/>
	<path fill="#FFFFFF" stroke="#FFFFFF" stroke-width="0.5" d="M7.6,76.7h0.8l-5.7,9.2c0,0,0,0,0,0l0,0l6.6,13H8.6L2.3,86.6L-1,91.9
		V99h-0.3h-0.3V76.7h0.3H-1v14L7.6,76.7z"/>
	<path fill="#FFFFFF" stroke="#FFFFFF" stroke-width="0.5" d="M23.5,76.7h0.7l-4.3,10.9v11.5h-0.3h-0.3V87.6l-4.3-10.9h0.7L19.5,87
		L23.5,76.7z"/>
	<path fill="#FFFFFF" stroke="#FFFFFF" stroke-width="0.5" d="M31.6,99.1v-0.3V76.7h0.3h0.3v21.9h8.3v0.3v0.3L31.6,99.1L31.6,99.1z"
		/>
	<path fill="#FFFFFF" stroke="#FFFFFF" stroke-width="0.5" d="M49,99.1V76.7h0.3h0.3v22.5h-0.3H49z"/>
	<path fill="#FFFFFF" stroke="#FFFFFF" stroke-width="0.5" d="M66.8,76.7h0.8l-5.7,9.2c0,0,0,0,0,0l0,0l6.6,13h-0.8l-6.3-12.4
		l-3.3,5.4V99h-0.3h-0.3V76.7h0.3h0.3v14L66.8,76.7z"/>
	<path fill="#FFFFFF" stroke="#FFFFFF" stroke-width="0.5" d="M83.7,98.5v0.3v0.3h-8.7v-0.3V77v-0.3h8.6V77v0.3h-7.9V89h6.2v0.3v0.3
		h-6.2v9L83.7,98.5L83.7,98.5z"/>
</g>
<g>
	<line fill="none" stroke="#FFFFFF" stroke-miterlimit="10" x1="82.5" y1="-24.6" x2="82.5" y2="60.2"/>
	<line fill="none" stroke="#FFFFFF" stroke-miterlimit="10" x1="83.6" y1="-24.5" x2="33.2" y2="-16.2"/>
	<line fill="none" stroke="#FFFFFF" stroke-miterlimit="10" x1="83.6" y1="60" x2="33.2" y2="68.2"/>
	<line fill="none" stroke="#FFFFFF" stroke-miterlimit="10" x1="33.5" y1="68.2" x2="73.9" y2="48.4"/>
	<line fill="none" stroke="#FFFFFF" stroke-miterlimit="10" x1="33" y1="-16" x2="33" y2="56.2"/>
	<line fill="none" stroke="#FFFFFF" stroke-miterlimit="10" x1="-15.6" y1="-24.5" x2="33.2" y2="-16.2"/>
	<line fill="none" stroke="#FFFFFF" stroke-miterlimit="10" x1="-15.5" y1="60" x2="33.2" y2="68.2"/>
	<line fill="none" stroke="#FFFFFF" stroke-miterlimit="10" x1="73.8" y1="47.9" x2="73.8" y2="-13.6"/>
	<line fill="none" stroke="#FFFFFF" stroke-miterlimit="10" x1="-16.5" y1="-24.6" x2="-16.5" y2="60.2"/>
	<circle fill="#FFFFFF" stroke="#FFFFFF" stroke-miterlimit="10" cx="32.9" cy="-16.1" r="1.5"/>
	<circle fill="#FFFFFF" stroke="#FFFFFF" stroke-miterlimit="10" cx="-16.1" cy="-24.5" r="1.5"/>
	<circle fill="#FFFFFF" stroke="#FFFFFF" stroke-miterlimit="10" cx="-16.1" cy="59.4" r="2.3"/>
	<circle fill="#FFFFFF" stroke="#FFFFFF" stroke-miterlimit="10" cx="33.4" cy="68.4" r="1.3"/>
	<circle fill="#FFFFFF" stroke="#FFFFFF" stroke-miterlimit="10" cx="33.1" cy="56.6" r="1.4"/>
	<circle fill="#FFFFFF" stroke="#FFFFFF" stroke-miterlimit="10" cx="73.7" cy="-14.2" r="1.1"/>
	<circle fill="#FFFFFF" stroke="#FFFFFF" stroke-miterlimit="10" cx="82.3" cy="60" r="1.4"/>
	<circle fill="#FFFFFF" stroke="#FFFFFF" stroke-miterlimit="10" cx="73.7" cy="47.9" r="1.5"/>
	<circle fill="#FFFFFF" stroke="#FFFFFF" stroke-miterlimit="10" cx="82.5" cy="-24.5" r="1.5"/>
</g>
</svg>
