<?xml version="1.0" encoding="utf-8"?>
<!-- Generator: Adobe Illustrator 18.1.1, SVG Export Plug-In . SVG Version: 6.00 Build 0)  -->
<svg version="1.1" id="Layer_1" xmlns="http://www.w3.org/2000/svg" xmlns:xlink="http://www.w3.org/1999/xlink" x="0px" y="0px"
	 viewBox="0 0 420 420" enable-background="new 0 0 420 420" xml:space="preserve">
<g>
	<path fill="#FFFFFF" stroke="#FFFFFF" d="M63.9,398.6c-1.6-1.4-2.7-3.2-3.5-5.4c-0.8-2.3-1.1-4.7-1.1-7.3h1.9
		c0,2.9,0.5,5.4,1.2,7.2c0.8,1.8,1.9,3.3,3.2,4.3c1.2,1,2.6,1.7,4.1,2c1.5,0.3,2.8,0.6,4.2,0.6c1.6,0,3.2-0.2,4.7-0.7
		c1.6-0.5,3-1.2,4.3-2.3c1.2-1,2.3-2.4,3-4.1c0.8-1.7,1.1-3.7,1.1-6.1c0-2.8-0.5-5.2-1.2-7.2s-1.9-3.9-3.2-5.5
		c-1.4-1.6-2.8-3-4.5-4.3c-1.7-1.2-3.4-2.5-5.1-3.7c-1.7-1.1-3.3-2.4-4.7-3.5s-2.9-2.4-4.1-3.8c-2.7-3.3-4.1-6.9-4.1-10.9
		c0-0.2,0-0.7,0-1.5s0.1-1.7,0.3-2.7c0.2-1,0.6-2.1,1-3.4c0.5-1.2,1.2-2.4,2.3-3.4c2.4-2.6,5.7-3.8,10-3.8c4.4,0,7.7,1.2,9.9,3.8
		c0.9,1.1,1.6,2.4,2,3.6c0.5,1.4,0.7,2.6,0.8,3.8c0.1,1.2,0.2,2.3,0.1,3c0,0.8,0,1.2,0,1.4h-1.9c0.1-1.5,0-2.8-0.1-3.8
		c-0.1-1.1-0.3-2.3-0.7-3.5c-0.3-1.2-0.9-2.3-1.7-3.2c-0.9-1-2-1.8-3.4-2.4s-3-0.8-4.8-0.8c-3.7,0-6.6,1.1-8.6,3.3
		c-0.9,0.9-1.5,1.9-1.9,3c-0.5,1.1-0.8,2.1-0.9,3c-0.2,0.9-0.2,2.1-0.2,3.5c0,2,0.3,3.8,1,5.4c0.7,1.6,1.6,3,2.7,4.4
		c1.1,1.4,2.4,2.6,3.8,3.6c1.5,1.1,2.9,2.3,4.5,3.4c1.8,1.2,3.6,2.5,5.3,3.8c1.7,1.4,3.3,2.9,4.7,4.6c3.3,3.9,4.8,8.6,4.8,13.9
		c0,5-1.7,8.9-5,11.6c-2.7,2.3-6.1,3.4-10.1,3.4c-1.5,0-3-0.2-4.8-0.6C67.2,400.9,65.5,400,63.9,398.6z"/>
	<path fill="#FFFFFF" stroke="#FFFFFF" d="M136.1,334h2.5l-17.1,27.5c0.1,0.1,0.2,0.1,0.2,0.2s0.1,0.1,0.1,0.2l19.6,38.8h-2.3
		l-18.8-37.2l-9.8,16v21.3h-1h-1v-67h1h1v41.9L136.1,334z"/>
	<path fill="#FFFFFF" stroke="#FFFFFF" d="M183.8,333.9h2.1l-13,32.7v34.3h-0.9h-1v-34.3l-13-32.7h2.1l11.8,30.9L183.8,333.9z"/>
	<path fill="#FFFFFF" stroke="#FFFFFF" d="M207.9,401v-0.9v-66.3h1h1v65.5h24.8v0.8v0.9L207.9,401L207.9,401z"/>
	<path fill="#FFFFFF" stroke="#FFFFFF" d="M260,401v-67.2h1h1V401h-1H260z"/>
	<path fill="#FFFFFF" stroke="#FFFFFF" d="M313.4,334h2.5l-17.1,27.5c0.1,0.1,0.2,0.1,0.2,0.2s0.1,0.1,0.1,0.2l19.6,38.8h-2.3
		l-18.8-37.2l-9.8,16v21.3h-1h-1v-67h1h1v41.9L313.4,334z"/>
	<path fill="#FFFFFF" stroke="#FFFFFF" d="M364,399.3v0.8v0.9h-26v-0.9v-65.2v-1h25.7v1v0.8h-23.8v34.9h18.6v0.9v0.8h-18.6v26.9H364
		V399.3z"/>
</g>
<g>
	
		<line opacity="0.6" fill="#FFFFFF" stroke="#FFFFFF" stroke-width="4" stroke-miterlimit="10" enable-background="new    " x1="360.1" y1="18" x2="360.1" y2="272"/>
	
		<line opacity="0.6" fill="#FFFFFF" stroke="#FFFFFF" stroke-width="4" stroke-miterlimit="10" enable-background="new    " x1="363.4" y1="18.4" x2="212.7" y2="43.2"/>
	
		<line opacity="0.6" fill="#FFFFFF" stroke="#FFFFFF" stroke-width="4" stroke-miterlimit="10" enable-background="new    " x1="363.4" y1="271.1" x2="212.7" y2="295.9"/>
	
		<line opacity="0.6" fill="#FFFFFF" stroke="#FFFFFF" stroke-width="4" stroke-miterlimit="10" enable-background="new    " x1="213.6" y1="295.9" x2="334.7" y2="236.4"/>
	
		<line opacity="0.6" fill="#FFFFFF" stroke="#FFFFFF" stroke-width="4" stroke-miterlimit="10" enable-background="new    " x1="212.1" y1="44" x2="212.1" y2="260"/>
	
		<line opacity="0.6" fill="#FFFFFF" stroke="#FFFFFF" stroke-width="4" stroke-miterlimit="10" enable-background="new    " x1="66.5" y1="18.4" x2="212.7" y2="43.2"/>
	
		<line opacity="0.6" fill="#FFFFFF" stroke="#FFFFFF" stroke-width="4" stroke-miterlimit="10" enable-background="new    " x1="66.8" y1="271.1" x2="212.7" y2="295.9"/>
	
		<line opacity="0.6" fill="#FFFFFF" stroke="#FFFFFF" stroke-width="4" stroke-miterlimit="10" enable-background="new    " x1="334.1" y1="235" x2="334.1" y2="51"/>
	
		<line opacity="0.6" fill="#FFFFFF" stroke="#FFFFFF" stroke-width="4" stroke-miterlimit="10" enable-background="new    " x1="64.1" y1="18" x2="64.1" y2="272"/>
	<circle fill="#FFFFFF" stroke="#FFFFFF" stroke-miterlimit="10" cx="211.7" cy="43.7" r="4.5"/>
	<circle fill="#FFFFFF" stroke="#FFFFFF" stroke-miterlimit="10" cx="65.1" cy="18.4" r="4.5"/>
	<circle fill="#FFFFFF" stroke="#FFFFFF" stroke-miterlimit="10" cx="65.1" cy="269.3" r="6.8"/>
	<circle fill="#FFFFFF" stroke="#FFFFFF" stroke-miterlimit="10" cx="213.3" cy="296.4" r="3.6"/>
	<circle fill="#FFFFFF" stroke="#FFFFFF" stroke-miterlimit="10" cx="212.4" cy="261.2" r="4.1"/>
	<circle fill="#FFFFFF" stroke="#FFFFFF" stroke-miterlimit="10" cx="333.9" cy="49.4" r="3.2"/>
	<circle fill="#FFFFFF" stroke="#FFFFFF" stroke-miterlimit="10" cx="359.5" cy="271.1" r="4.1"/>
	<circle fill="#FFFFFF" stroke="#FFFFFF" stroke-miterlimit="10" cx="333.9" cy="235" r="4.5"/>
	<circle fill="#FFFFFF" stroke="#FFFFFF" stroke-miterlimit="10" cx="360.4" cy="18.4" r="4.5"/>
</g>
</svg>
