<?xml version="1.0" encoding="utf-8"?>
<!-- Generator: Adobe Illustrator 18.1.1, SVG Export Plug-In . SVG Version: 6.00 Build 0)  -->
<svg version="1.1" id="Layer_1" xmlns="http://www.w3.org/2000/svg" xmlns:xlink="http://www.w3.org/1999/xlink" x="0px" y="0px"
	 viewBox="0 0 200 200" enable-background="new 0 0 200 200" xml:space="preserve">
<path fill="#FFFFFF" stroke="#FFFFFF" d="M-4.6,234.8c-1.2-1-2-2.3-2.5-3.9c-0.6-1.7-0.8-3.4-0.8-5.3h1.4c0,2.1,0.4,3.9,0.9,5.2
	c0.6,1.3,1.4,2.4,2.3,3.1c0.9,0.7,1.9,1.2,3,1.4s2,0.4,3,0.4c1.2,0,2.3-0.1,3.4-0.5c1.2-0.4,2.2-0.9,3.1-1.7c0.9-0.7,1.7-1.7,2.2-3
	c0.6-1.2,0.8-2.7,0.8-4.4c0-2-0.4-3.8-0.9-5.2s-1.4-2.8-2.3-4c-1-1.2-2-2.2-3.3-3.1c-1.2-0.9-2.5-1.8-3.7-2.7
	c-1.2-0.8-2.4-1.7-3.4-2.5s-2.1-1.7-3-2.7c-2-2.4-3-5-3-7.9c0-0.1,0-0.5,0-1.1s0.1-1.2,0.2-2c0.1-0.7,0.4-1.5,0.7-2.5
	c0.4-0.9,0.9-1.7,1.7-2.5c1.7-1.9,4.1-2.7,7.2-2.7c3.2,0,5.6,0.9,7.2,2.7c0.7,0.8,1.2,1.7,1.4,2.6c0.4,1,0.5,1.9,0.6,2.7
	c0.1,0.9,0.1,1.7,0.1,2.2c0,0.6,0,0.9,0,1h-1.4c0.1-1.1,0-2-0.1-2.7c-0.1-0.8-0.2-1.7-0.5-2.5c-0.2-0.9-0.7-1.7-1.2-2.3
	c-0.7-0.7-1.4-1.3-2.5-1.7s-2.2-0.6-3.5-0.6c-2.7,0-4.8,0.8-6.2,2.4c-0.7,0.7-1.1,1.4-1.4,2.2c-0.4,0.8-0.6,1.5-0.7,2.2
	c-0.1,0.7-0.1,1.5-0.1,2.5c0,1.4,0.2,2.7,0.7,3.9c0.5,1.2,1.2,2.2,2,3.2s1.7,1.9,2.7,2.6c1.1,0.8,2.1,1.7,3.3,2.5
	c1.3,0.9,2.6,1.8,3.8,2.7c1.2,1,2.4,2.1,3.4,3.3c2.4,2.8,3.5,6.2,3.5,10.1c0,3.6-1.2,6.4-3.6,8.4c-2,1.7-4.4,2.5-7.3,2.5
	c-1.1,0-2.2-0.1-3.5-0.4C-2.3,236.5-3.5,235.9-4.6,234.8z"/>
<path fill="#FFFFFF" stroke="#FFFFFF" d="M47.6,188.1h1.8L37,208c0.1,0.1,0.1,0.1,0.1,0.1s0.1,0.1,0.1,0.1l14.2,28.1h-1.7
	l-13.6-26.9L29,221v15.4h-0.7h-0.7V188h0.7H29v30.3L47.6,188.1z"/>
<path fill="#FFFFFF" stroke="#FFFFFF" d="M82.1,188.1h1.5l-9.4,23.6v24.8h-0.7h-0.7v-24.8l-9.4-23.6h1.5l8.5,22.3L82.1,188.1z"/>
<path fill="#FFFFFF" stroke="#FFFFFF" d="M99.5,236.6v-0.7V188h0.7h0.7v47.4h17.9v0.6v0.7L99.5,236.6L99.5,236.6z"/>
<path fill="#FFFFFF" stroke="#FFFFFF" d="M137.2,236.6V188h0.7h0.7v48.6h-0.7H137.2z"/>
<path fill="#FFFFFF" stroke="#FFFFFF" d="M175.8,188.1h1.8L165.2,208c0.1,0.1,0.1,0.1,0.1,0.1s0.1,0.1,0.1,0.1l14.2,28.1h-1.7
	l-13.6-26.9l-7.1,11.6v15.4h-0.7h-0.7V188h0.7h0.7v30.3L175.8,188.1z"/>
<path fill="#FFFFFF" stroke="#FFFFFF" d="M212.4,235.3v0.6v0.7h-18.8v-0.7v-47.1v-0.7h18.6v0.7v0.6h-17.2v25.2h13.4v0.7v0.6h-13.4
	v19.5L212.4,235.3L212.4,235.3z"/>
<line fill="none" stroke="#FFFFFF" stroke-width="3" stroke-miterlimit="10" enable-background="new    " x1="206.8" y1="-31.3" x2="206.8" y2="152.4"/>
<line fill="none" stroke="#FFFFFF" stroke-width="3" stroke-miterlimit="10" enable-background="new    " x1="209.2" y1="-31" x2="100.2" y2="-13"/>
<line fill="none" stroke="#FFFFFF" stroke-width="3" stroke-miterlimit="10" enable-background="new    " x1="209.2" y1="151.8" x2="100.2" y2="169.7"/>
<line fill="none" stroke="#FFFFFF" stroke-width="3" stroke-miterlimit="10" enable-background="new    " x1="100.8" y1="169.7" x2="188.4" y2="126.7"/>
<line fill="none" stroke="#FFFFFF" stroke-width="3" stroke-miterlimit="10" enable-background="new    " x1="99.8" y1="-12.5" x2="99.8" y2="143.7"/>
<line fill="none" stroke="#FFFFFF" stroke-width="3" stroke-miterlimit="10" enable-background="new    " x1="-5.5" y1="-31" x2="100.2" y2="-13"/>
<line fill="none" stroke="#FFFFFF" stroke-width="3" stroke-miterlimit="10" enable-background="new    " x1="-5.3" y1="151.8" x2="100.2" y2="169.7"/>
<line fill="none" stroke="#FFFFFF" stroke-width="3" stroke-miterlimit="10" enable-background="new    " x1="188" y1="125.7" x2="188" y2="-7.4"/>
<line fill="none" stroke="#FFFFFF" stroke-width="3" stroke-miterlimit="10" enable-background="new    " x1="-7.3" y1="-31.3" x2="-7.3" y2="152.4"/>
<circle fill="#FFFFFF" stroke="#FFFFFF" stroke-miterlimit="10" cx="99.5" cy="-12.7" r="3.3"/>
<circle fill="#FFFFFF" stroke="#FFFFFF" stroke-miterlimit="10" cx="-6.5" cy="-31" r="3.3"/>
<circle fill="#FFFFFF" stroke="#FFFFFF" stroke-miterlimit="10" cx="-6.5" cy="150.5" r="4.9"/>
<circle fill="#FFFFFF" stroke="#FFFFFF" stroke-miterlimit="10" cx="100.6" cy="170.1" r="2.6"/>
<circle fill="#FFFFFF" stroke="#FFFFFF" stroke-miterlimit="10" cx="100" cy="144.6" r="3"/>
<circle fill="#FFFFFF" stroke="#FFFFFF" stroke-miterlimit="10" cx="187.8" cy="-8.6" r="2.3"/>
<circle fill="#FFFFFF" stroke="#FFFFFF" stroke-miterlimit="10" cx="206.4" cy="151.8" r="3"/>
<circle fill="#FFFFFF" stroke="#FFFFFF" stroke-miterlimit="10" cx="187.8" cy="125.7" r="3.3"/>
<circle fill="#FFFFFF" stroke="#FFFFFF" stroke-miterlimit="10" cx="207" cy="-31" r="3.3"/>
</svg>
